<svg xmlns="http://www.w3.org/2000/svg" version="1.1" xmlns:xlink="http://www.w3.org/1999/xlink" xmlns:svgjs="http://svgjs.com/svgjs" width="1440" height="560" preserveAspectRatio="none" viewBox="0 0 1440 560"><g mask="url(&quot;#SvgjsMask1006&quot;)" fill="none"><rect width="1440" height="560" x="0" y="0" fill="rgba(255, 255, 255, 1)"></rect><path d="M-77.13 364L-77.13 364" stroke="rgba(101, 19, 41, 1)" stroke-width="1.5"></path><path d="M-77.13 364L-53.04 502.8" stroke="rgba(101, 19, 41, 1)" stroke-width="1.5"></path><path d="M-77.13 364L86.06 382.94" stroke="rgba(101, 19, 41, 1)" stroke-width="1.5"></path><path d="M-77.13 364L107.67 527.52" stroke="rgba(101, 19, 41, 1)" stroke-width="1.5"></path><path d="M-53.04 502.8L-53.04 502.8" stroke="rgba(101, 19, 41, 1)" stroke-width="1.5"></path><path d="M-53.04 502.8L107.67 527.52" stroke="rgba(101, 19, 41, 1)" stroke-width="1.5"></path><path d="M-53.04 502.8L86.06 382.94" stroke="rgba(101, 19, 41, 1)" stroke-width="1.5"></path><path d="M-53.04 502.8L75.56 659.43" stroke="rgba(101, 19, 41, 1)" stroke-width="1.5"></path><path d="M86.06 382.94L86.06 382.94" stroke="rgba(101, 19, 41, 1)" stroke-width="1.5"></path><path d="M86.06 382.94L201.19 352.49" stroke="rgba(101, 19, 41, 1)" stroke-width="1.5"></path><path d="M86.06 382.94L107.67 527.52" stroke="rgba(101, 19, 41, 1)" stroke-width="1.5"></path><path d="M107.67 527.52L107.67 527.52" stroke="rgba(101, 19, 41, 1)" stroke-width="1.5"></path><path d="M107.67 527.52L229.9 560.82" stroke="rgba(101, 19, 41, 1)" stroke-width="1.5"></path><path d="M107.67 527.52L75.56 659.43" stroke="rgba(101, 19, 41, 1)" stroke-width="1.5"></path><path d="M107.67 527.52L188.35 698.07" stroke="rgba(101, 19, 41, 1)" stroke-width="1.5"></path><path d="M75.56 659.43L75.56 659.43" stroke="rgba(101, 19, 41, 1)" stroke-width="1.5"></path><path d="M75.56 659.43L188.35 698.07" stroke="rgba(101, 19, 41, 1)" stroke-width="1.5"></path><path d="M201.19 352.49L201.19 352.49" stroke="rgba(101, 19, 41, 1)" stroke-width="1.5"></path><path d="M201.19 352.49L398.42 343.22" stroke="rgba(101, 19, 41, 1)" stroke-width="1.5"></path><path d="M201.19 352.49L107.67 527.52" stroke="rgba(101, 19, 41, 1)" stroke-width="1.5"></path><path d="M201.19 352.49L229.9 560.82" stroke="rgba(101, 19, 41, 1)" stroke-width="1.5"></path><path d="M201.19 352.49L373.53 540.59" stroke="rgba(101, 19, 41, 1)" stroke-width="1.5"></path><path d="M229.9 560.82L229.9 560.82" stroke="rgba(101, 19, 41, 1)" stroke-width="1.5"></path><path d="M229.9 560.82L188.35 698.07" stroke="rgba(101, 19, 41, 1)" stroke-width="1.5"></path><path d="M229.9 560.82L373.53 540.59" stroke="rgba(101, 19, 41, 1)" stroke-width="1.5"></path><path d="M188.35 698.07L188.35 698.07" stroke="rgba(101, 19, 41, 1)" stroke-width="1.5"></path><path d="M398.42 343.22L398.42 343.22" stroke="rgba(101, 19, 41, 1)" stroke-width="1.5"></path><path d="M398.42 343.22L517.3 374.68" stroke="rgba(101, 19, 41, 1)" stroke-width="1.5"></path><path d="M398.42 343.22L373.53 540.59" stroke="rgba(101, 19, 41, 1)" stroke-width="1.5"></path><path d="M373.53 540.59L373.53 540.59" stroke="rgba(101, 19, 41, 1)" stroke-width="1.5"></path><path d="M373.53 540.59L393.54 648.74" stroke="rgba(101, 19, 41, 1)" stroke-width="1.5"></path><path d="M373.53 540.59L495.12 532.34" stroke="rgba(101, 19, 41, 1)" stroke-width="1.5"></path><path d="M393.54 648.74L393.54 648.74" stroke="rgba(101, 19, 41, 1)" stroke-width="1.5"></path><path d="M393.54 648.74L495.12 532.34" stroke="rgba(101, 19, 41, 1)" stroke-width="1.5"></path><path d="M393.54 648.74L229.9 560.82" stroke="rgba(101, 19, 41, 1)" stroke-width="1.5"></path><path d="M393.54 648.74L188.35 698.07" stroke="rgba(101, 19, 41, 1)" stroke-width="1.5"></path><path d="M517.3 374.68L517.3 374.68" stroke="rgba(101, 19, 41, 1)" stroke-width="1.5"></path><path d="M517.3 374.68L669.91 364.86" stroke="rgba(101, 19, 41, 1)" stroke-width="1.5"></path><path d="M517.3 374.68L495.12 532.34" stroke="rgba(101, 19, 41, 1)" stroke-width="1.5"></path><path d="M517.3 374.68L373.53 540.59" stroke="rgba(101, 19, 41, 1)" stroke-width="1.5"></path><path d="M517.3 374.68L706.91 502.62" stroke="rgba(101, 19, 41, 1)" stroke-width="1.5"></path><path d="M495.12 532.34L495.12 532.34" stroke="rgba(101, 19, 41, 1)" stroke-width="1.5"></path><path d="M495.12 532.34L398.42 343.22" stroke="rgba(101, 19, 41, 1)" stroke-width="1.5"></path><path d="M495.12 532.34L706.91 502.62" stroke="rgba(101, 19, 41, 1)" stroke-width="1.5"></path><path d="M495.12 532.34L669.91 364.86" stroke="rgba(101, 19, 41, 1)" stroke-width="1.5"></path><path d="M669.91 364.86L669.91 364.86" stroke="rgba(101, 19, 41, 1)" stroke-width="1.5"></path><path d="M669.91 364.86L706.91 502.62" stroke="rgba(101, 19, 41, 1)" stroke-width="1.5"></path><path d="M706.91 502.62L706.91 502.62" stroke="rgba(101, 19, 41, 1)" stroke-width="1.5"></path><path d="M706.91 502.62L855.86 494.46" stroke="rgba(101, 19, 41, 1)" stroke-width="1.5"></path><path d="M706.91 502.62L699.63 708.65" stroke="rgba(101, 19, 41, 1)" stroke-width="1.5"></path><path d="M706.91 502.62L850.44 694.33" stroke="rgba(101, 19, 41, 1)" stroke-width="1.5"></path><path d="M699.63 708.65L699.63 708.65" stroke="rgba(101, 19, 41, 1)" stroke-width="1.5"></path><path d="M699.63 708.65L850.44 694.33" stroke="rgba(101, 19, 41, 1)" stroke-width="1.5"></path><path d="M699.63 708.65L950.06 686.69" stroke="rgba(101, 19, 41, 1)" stroke-width="1.5"></path><path d="M858.18 246.19L858.18 246.19" stroke="rgba(101, 19, 41, 1)" stroke-width="1.5"></path><path d="M858.18 246.19L974.3 261.33" stroke="rgba(101, 19, 41, 1)" stroke-width="1.5"></path><path d="M858.18 246.19L942.01 383.63" stroke="rgba(101, 19, 41, 1)" stroke-width="1.5"></path><path d="M858.18 246.19L669.91 364.86" stroke="rgba(101, 19, 41, 1)" stroke-width="1.5"></path><path d="M858.18 246.19L1002.94 48.22" stroke="rgba(101, 19, 41, 1)" stroke-width="1.5"></path><path d="M858.18 246.19L855.86 494.46" stroke="rgba(101, 19, 41, 1)" stroke-width="1.5"></path><path d="M858.18 246.19L1133.98 210.94" stroke="rgba(101, 19, 41, 1)" stroke-width="1.5"></path><path d="M855.86 494.46L855.86 494.46" stroke="rgba(101, 19, 41, 1)" stroke-width="1.5"></path><path d="M855.86 494.46L942.01 383.63" stroke="rgba(101, 19, 41, 1)" stroke-width="1.5"></path><path d="M855.86 494.46L989.04 547.35" stroke="rgba(101, 19, 41, 1)" stroke-width="1.5"></path><path d="M850.44 694.33L850.44 694.33" stroke="rgba(101, 19, 41, 1)" stroke-width="1.5"></path><path d="M850.44 694.33L950.06 686.69" stroke="rgba(101, 19, 41, 1)" stroke-width="1.5"></path><path d="M850.44 694.33L855.86 494.46" stroke="rgba(101, 19, 41, 1)" stroke-width="1.5"></path><path d="M850.44 694.33L989.04 547.35" stroke="rgba(101, 19, 41, 1)" stroke-width="1.5"></path><path d="M1007.17 -40.24L1007.17 -40.24" stroke="rgba(101, 19, 41, 1)" stroke-width="1.5"></path><path d="M1007.17 -40.24L1002.94 48.22" stroke="rgba(101, 19, 41, 1)" stroke-width="1.5"></path><path d="M1007.17 -40.24L1137.54 -53.35" stroke="rgba(101, 19, 41, 1)" stroke-width="1.5"></path><path d="M1002.94 48.22L1002.94 48.22" stroke="rgba(101, 19, 41, 1)" stroke-width="1.5"></path><path d="M1002.94 48.22L1152.06 62.98" stroke="rgba(101, 19, 41, 1)" stroke-width="1.5"></path><path d="M1002.94 48.22L1137.54 -53.35" stroke="rgba(101, 19, 41, 1)" stroke-width="1.5"></path><path d="M974.3 261.33L974.3 261.33" stroke="rgba(101, 19, 41, 1)" stroke-width="1.5"></path><path d="M974.3 261.33L942.01 383.63" stroke="rgba(101, 19, 41, 1)" stroke-width="1.5"></path><path d="M974.3 261.33L1133.98 210.94" stroke="rgba(101, 19, 41, 1)" stroke-width="1.5"></path><path d="M942.01 383.63L942.01 383.63" stroke="rgba(101, 19, 41, 1)" stroke-width="1.5"></path><path d="M942.01 383.63L989.04 547.35" stroke="rgba(101, 19, 41, 1)" stroke-width="1.5"></path><path d="M942.01 383.63L1152.14 371.52" stroke="rgba(101, 19, 41, 1)" stroke-width="1.5"></path><path d="M989.04 547.35L989.04 547.35" stroke="rgba(101, 19, 41, 1)" stroke-width="1.5"></path><path d="M989.04 547.35L950.06 686.69" stroke="rgba(101, 19, 41, 1)" stroke-width="1.5"></path><path d="M989.04 547.35L1160.83 525.9" stroke="rgba(101, 19, 41, 1)" stroke-width="1.5"></path><path d="M989.04 547.35L1127.7 678.79" stroke="rgba(101, 19, 41, 1)" stroke-width="1.5"></path><path d="M950.06 686.69L950.06 686.69" stroke="rgba(101, 19, 41, 1)" stroke-width="1.5"></path><path d="M950.06 686.69L1127.7 678.79" stroke="rgba(101, 19, 41, 1)" stroke-width="1.5"></path><path d="M950.06 686.69L855.86 494.46" stroke="rgba(101, 19, 41, 1)" stroke-width="1.5"></path><path d="M1137.54 -53.35L1137.54 -53.35" stroke="rgba(101, 19, 41, 1)" stroke-width="1.5"></path><path d="M1137.54 -53.35L1152.06 62.98" stroke="rgba(101, 19, 41, 1)" stroke-width="1.5"></path><path d="M1137.54 -53.35L1278.01 -38.67" stroke="rgba(101, 19, 41, 1)" stroke-width="1.5"></path><path d="M1152.06 62.98L1152.06 62.98" stroke="rgba(101, 19, 41, 1)" stroke-width="1.5"></path><path d="M1152.06 62.98L1260.89 86.89" stroke="rgba(101, 19, 41, 1)" stroke-width="1.5"></path><path d="M1152.06 62.98L1133.98 210.94" stroke="rgba(101, 19, 41, 1)" stroke-width="1.5"></path><path d="M1152.06 62.98L1278.01 -38.67" stroke="rgba(101, 19, 41, 1)" stroke-width="1.5"></path><path d="M1152.06 62.98L1007.17 -40.24" stroke="rgba(101, 19, 41, 1)" stroke-width="1.5"></path><path d="M1133.98 210.94L1133.98 210.94" stroke="rgba(101, 19, 41, 1)" stroke-width="1.5"></path><path d="M1133.98 210.94L1262.09 246.74" stroke="rgba(101, 19, 41, 1)" stroke-width="1.5"></path><path d="M1152.14 371.52L1152.14 371.52" stroke="rgba(101, 19, 41, 1)" stroke-width="1.5"></path><path d="M1152.14 371.52L1290.9 372.11" stroke="rgba(101, 19, 41, 1)" stroke-width="1.5"></path><path d="M1152.14 371.52L1160.83 525.9" stroke="rgba(101, 19, 41, 1)" stroke-width="1.5"></path><path d="M1152.14 371.52L1133.98 210.94" stroke="rgba(101, 19, 41, 1)" stroke-width="1.5"></path><path d="M1160.83 525.9L1160.83 525.9" stroke="rgba(101, 19, 41, 1)" stroke-width="1.5"></path><path d="M1160.83 525.9L1246.58 549.03" stroke="rgba(101, 19, 41, 1)" stroke-width="1.5"></path><path d="M1160.83 525.9L1127.7 678.79" stroke="rgba(101, 19, 41, 1)" stroke-width="1.5"></path><path d="M1160.83 525.9L1269.29 649.78" stroke="rgba(101, 19, 41, 1)" stroke-width="1.5"></path><path d="M1127.7 678.79L1127.7 678.79" stroke="rgba(101, 19, 41, 1)" stroke-width="1.5"></path><path d="M1127.7 678.79L1269.29 649.78" stroke="rgba(101, 19, 41, 1)" stroke-width="1.5"></path><path d="M1127.7 678.79L1246.58 549.03" stroke="rgba(101, 19, 41, 1)" stroke-width="1.5"></path><path d="M1278.01 -38.67L1278.01 -38.67" stroke="rgba(101, 19, 41, 1)" stroke-width="1.5"></path><path d="M1278.01 -38.67L1260.89 86.89" stroke="rgba(101, 19, 41, 1)" stroke-width="1.5"></path><path d="M1278.01 -38.67L1420.12 -95.01" stroke="rgba(101, 19, 41, 1)" stroke-width="1.5"></path><path d="M1260.89 86.89L1260.89 86.89" stroke="rgba(101, 19, 41, 1)" stroke-width="1.5"></path><path d="M1260.89 86.89L1262.09 246.74" stroke="rgba(101, 19, 41, 1)" stroke-width="1.5"></path><path d="M1260.89 86.89L1133.98 210.94" stroke="rgba(101, 19, 41, 1)" stroke-width="1.5"></path><path d="M1262.09 246.74L1262.09 246.74" stroke="rgba(101, 19, 41, 1)" stroke-width="1.5"></path><path d="M1262.09 246.74L1290.9 372.11" stroke="rgba(101, 19, 41, 1)" stroke-width="1.5"></path><path d="M1262.09 246.74L1152.14 371.52" stroke="rgba(101, 19, 41, 1)" stroke-width="1.5"></path><path d="M1262.09 246.74L1437.49 239.63" stroke="rgba(101, 19, 41, 1)" stroke-width="1.5"></path><path d="M1262.09 246.74L1152.06 62.98" stroke="rgba(101, 19, 41, 1)" stroke-width="1.5"></path><path d="M1290.9 372.11L1290.9 372.11" stroke="rgba(101, 19, 41, 1)" stroke-width="1.5"></path><path d="M1290.9 372.11L1449.44 396.41" stroke="rgba(101, 19, 41, 1)" stroke-width="1.5"></path><path d="M1290.9 372.11L1246.58 549.03" stroke="rgba(101, 19, 41, 1)" stroke-width="1.5"></path><path d="M1246.58 549.03L1246.58 549.03" stroke="rgba(101, 19, 41, 1)" stroke-width="1.5"></path><path d="M1269.29 649.78L1269.29 649.78" stroke="rgba(101, 19, 41, 1)" stroke-width="1.5"></path><path d="M1269.29 649.78L1246.58 549.03" stroke="rgba(101, 19, 41, 1)" stroke-width="1.5"></path><path d="M1269.29 649.78L1402.63 696.04" stroke="rgba(101, 19, 41, 1)" stroke-width="1.5"></path><path d="M1420.12 -95.01L1420.12 -95.01" stroke="rgba(101, 19, 41, 1)" stroke-width="1.5"></path><path d="M1420.12 -95.01L1611.2 -57.83" stroke="rgba(101, 19, 41, 1)" stroke-width="1.5"></path><path d="M1420.12 -95.01L1461.38 110.68" stroke="rgba(101, 19, 41, 1)" stroke-width="1.5"></path><path d="M1420.12 -95.01L1563.77 71.27" stroke="rgba(101, 19, 41, 1)" stroke-width="1.5"></path><path d="M1420.12 -95.01L1260.89 86.89" stroke="rgba(101, 19, 41, 1)" stroke-width="1.5"></path><path d="M1420.12 -95.01L1137.54 -53.35" stroke="rgba(101, 19, 41, 1)" stroke-width="1.5"></path><path d="M1461.38 110.68L1461.38 110.68" stroke="rgba(101, 19, 41, 1)" stroke-width="1.5"></path><path d="M1461.38 110.68L1563.77 71.27" stroke="rgba(101, 19, 41, 1)" stroke-width="1.5"></path><path d="M1461.38 110.68L1437.49 239.63" stroke="rgba(101, 19, 41, 1)" stroke-width="1.5"></path><path d="M1437.49 239.63L1437.49 239.63" stroke="rgba(101, 19, 41, 1)" stroke-width="1.5"></path><path d="M1437.49 239.63L1574.97 218.44" stroke="rgba(101, 19, 41, 1)" stroke-width="1.5"></path><path d="M1437.49 239.63L1545.4 342.11" stroke="rgba(101, 19, 41, 1)" stroke-width="1.5"></path><path d="M1437.49 239.63L1449.44 396.41" stroke="rgba(101, 19, 41, 1)" stroke-width="1.5"></path><path d="M1449.44 396.41L1449.44 396.41" stroke="rgba(101, 19, 41, 1)" stroke-width="1.5"></path><path d="M1449.44 396.41L1545.4 342.11" stroke="rgba(101, 19, 41, 1)" stroke-width="1.5"></path><path d="M1449.44 396.41L1393.93 528.82" stroke="rgba(101, 19, 41, 1)" stroke-width="1.5"></path><path d="M1449.44 396.41L1557.94 511.47" stroke="rgba(101, 19, 41, 1)" stroke-width="1.5"></path><path d="M1449.44 396.41L1574.97 218.44" stroke="rgba(101, 19, 41, 1)" stroke-width="1.5"></path><path d="M1393.93 528.82L1393.93 528.82" stroke="rgba(101, 19, 41, 1)" stroke-width="1.5"></path><path d="M1393.93 528.82L1246.58 549.03" stroke="rgba(101, 19, 41, 1)" stroke-width="1.5"></path><path d="M1393.93 528.82L1557.94 511.47" stroke="rgba(101, 19, 41, 1)" stroke-width="1.5"></path><path d="M1393.93 528.82L1402.63 696.04" stroke="rgba(101, 19, 41, 1)" stroke-width="1.5"></path><path d="M1402.63 696.04L1402.63 696.04" stroke="rgba(101, 19, 41, 1)" stroke-width="1.5"></path><path d="M1611.2 -57.83L1611.2 -57.83" stroke="rgba(101, 19, 41, 1)" stroke-width="1.5"></path><path d="M1611.2 -57.83L1563.77 71.27" stroke="rgba(101, 19, 41, 1)" stroke-width="1.5"></path><path d="M1611.2 -57.83L1461.38 110.68" stroke="rgba(101, 19, 41, 1)" stroke-width="1.5"></path><path d="M1563.77 71.27L1563.77 71.27" stroke="rgba(101, 19, 41, 1)" stroke-width="1.5"></path><path d="M1574.97 218.44L1574.97 218.44" stroke="rgba(101, 19, 41, 1)" stroke-width="1.5"></path><path d="M1574.97 218.44L1545.4 342.11" stroke="rgba(101, 19, 41, 1)" stroke-width="1.5"></path><path d="M1574.97 218.44L1563.77 71.27" stroke="rgba(101, 19, 41, 1)" stroke-width="1.5"></path><path d="M1545.4 342.11L1545.4 342.11" stroke="rgba(101, 19, 41, 1)" stroke-width="1.5"></path><path d="M1545.4 342.11L1557.94 511.47" stroke="rgba(101, 19, 41, 1)" stroke-width="1.5"></path><path d="M1545.4 342.11L1393.93 528.82" stroke="rgba(101, 19, 41, 1)" stroke-width="1.5"></path><path d="M1545.4 342.11L1461.38 110.68" stroke="rgba(101, 19, 41, 1)" stroke-width="1.5"></path><path d="M1557.94 511.47L1557.94 511.47" stroke="rgba(101, 19, 41, 1)" stroke-width="1.5"></path><path d="M1557.94 511.47L1571.21 661.69" stroke="rgba(101, 19, 41, 1)" stroke-width="1.5"></path><path d="M1557.94 511.47L1402.63 696.04" stroke="rgba(101, 19, 41, 1)" stroke-width="1.5"></path><path d="M1571.21 661.69L1571.21 661.69" stroke="rgba(101, 19, 41, 1)" stroke-width="1.5"></path><path d="M1571.21 661.69L1402.63 696.04" stroke="rgba(101, 19, 41, 1)" stroke-width="1.5"></path><circle r="5" cx="-77.13" cy="364" fill="rgba(101, 19, 41, 1)"></circle><circle r="5" cx="-53.04" cy="502.8" fill="rgba(101, 19, 41, 1)"></circle><circle r="5" cx="86.06" cy="382.94" fill="rgba(101, 19, 41, 1)"></circle><circle r="5" cx="107.67" cy="527.52" fill="rgba(101, 19, 41, 1)"></circle><circle r="5" cx="75.56" cy="659.43" fill="rgba(101, 19, 41, 1)"></circle><circle r="5" cx="201.19" cy="352.49" fill="rgba(101, 19, 41, 1)"></circle><circle r="5" cx="229.9" cy="560.82" fill="rgba(101, 19, 41, 1)"></circle><circle r="5" cx="188.35" cy="698.07" fill="rgba(101, 19, 41, 1)"></circle><circle r="5" cx="398.42" cy="343.22" fill="rgba(101, 19, 41, 1)"></circle><circle r="5" cx="373.53" cy="540.59" fill="rgba(101, 19, 41, 1)"></circle><circle r="5" cx="393.54" cy="648.74" fill="rgba(101, 19, 41, 1)"></circle><circle r="5" cx="517.3" cy="374.68" fill="rgba(101, 19, 41, 1)"></circle><circle r="5" cx="495.12" cy="532.34" fill="rgba(101, 19, 41, 1)"></circle><circle r="5" cx="669.91" cy="364.86" fill="rgba(101, 19, 41, 1)"></circle><circle r="5" cx="706.91" cy="502.62" fill="rgba(101, 19, 41, 1)"></circle><circle r="5" cx="699.63" cy="708.65" fill="rgba(101, 19, 41, 1)"></circle><circle r="5" cx="858.18" cy="246.19" fill="rgba(101, 19, 41, 1)"></circle><circle r="5" cx="855.86" cy="494.46" fill="rgba(101, 19, 41, 1)"></circle><circle r="5" cx="850.44" cy="694.33" fill="rgba(101, 19, 41, 1)"></circle><circle r="5" cx="1007.17" cy="-40.24" fill="rgba(101, 19, 41, 1)"></circle><circle r="5" cx="1002.94" cy="48.22" fill="rgba(101, 19, 41, 1)"></circle><circle r="5" cx="974.3" cy="261.33" fill="rgba(101, 19, 41, 1)"></circle><circle r="5" cx="942.01" cy="383.63" fill="rgba(101, 19, 41, 1)"></circle><circle r="5" cx="989.04" cy="547.35" fill="rgba(101, 19, 41, 1)"></circle><circle r="5" cx="950.06" cy="686.69" fill="rgba(101, 19, 41, 1)"></circle><circle r="5" cx="1137.54" cy="-53.35" fill="rgba(101, 19, 41, 1)"></circle><circle r="5" cx="1152.06" cy="62.98" fill="rgba(101, 19, 41, 1)"></circle><circle r="5" cx="1133.98" cy="210.94" fill="rgba(101, 19, 41, 1)"></circle><circle r="5" cx="1152.14" cy="371.52" fill="rgba(101, 19, 41, 1)"></circle><circle r="5" cx="1160.83" cy="525.9" fill="rgba(101, 19, 41, 1)"></circle><circle r="5" cx="1127.7" cy="678.79" fill="rgba(101, 19, 41, 1)"></circle><circle r="5" cx="1278.01" cy="-38.67" fill="rgba(101, 19, 41, 1)"></circle><circle r="5" cx="1260.89" cy="86.89" fill="rgba(101, 19, 41, 1)"></circle><circle r="5" cx="1262.09" cy="246.74" fill="rgba(101, 19, 41, 1)"></circle><circle r="5" cx="1290.9" cy="372.11" fill="rgba(101, 19, 41, 1)"></circle><circle r="5" cx="1246.58" cy="549.03" fill="rgba(101, 19, 41, 1)"></circle><circle r="5" cx="1269.29" cy="649.78" fill="rgba(101, 19, 41, 1)"></circle><circle r="5" cx="1420.12" cy="-95.01" fill="rgba(101, 19, 41, 1)"></circle><circle r="5" cx="1461.38" cy="110.68" fill="rgba(101, 19, 41, 1)"></circle><circle r="5" cx="1437.49" cy="239.63" fill="rgba(101, 19, 41, 1)"></circle><circle r="5" cx="1449.44" cy="396.41" fill="rgba(101, 19, 41, 1)"></circle><circle r="5" cx="1393.93" cy="528.82" fill="rgba(101, 19, 41, 1)"></circle><circle r="5" cx="1402.63" cy="696.04" fill="rgba(101, 19, 41, 1)"></circle><circle r="5" cx="1611.2" cy="-57.83" fill="rgba(101, 19, 41, 1)"></circle><circle r="5" cx="1563.77" cy="71.27" fill="rgba(101, 19, 41, 1)"></circle><circle r="5" cx="1574.97" cy="218.44" fill="rgba(101, 19, 41, 1)"></circle><circle r="5" cx="1545.4" cy="342.11" fill="rgba(101, 19, 41, 1)"></circle><circle r="5" cx="1557.94" cy="511.47" fill="rgba(101, 19, 41, 1)"></circle><circle r="5" cx="1571.21" cy="661.69" fill="rgba(101, 19, 41, 1)"></circle><path d="M938.44 400.3L938.44 400.3" stroke="hsl(229.10000000000002, 10%, 56.1%)" stroke-width="1.5"></path><path d="M938.44 400.3L839.12 382.53" stroke="hsl(229.10000000000002, 10%, 56.1%)" stroke-width="1.5"></path><path d="M938.44 400.3L973.53 527.14" stroke="hsl(229.10000000000002, 10%, 56.1%)" stroke-width="1.5"></path><path d="M1158.36 -82.56L1158.36 -82.56" stroke="hsl(229.10000000000002, 10%, 56.1%)" stroke-width="1.5"></path><path d="M1158.36 -82.56L1255.22 -63.93" stroke="hsl(229.10000000000002, 10%, 56.1%)" stroke-width="1.5"></path><path d="M1147.64 199.08L1147.64 199.08" stroke="hsl(229.10000000000002, 10%, 56.1%)" stroke-width="1.5"></path><path d="M1147.64 199.08L1248.73 199.23" stroke="hsl(229.10000000000002, 10%, 56.1%)" stroke-width="1.5"></path><path d="M1090.23 510.21L1090.23 510.21" stroke="hsl(229.10000000000002, 10%, 56.1%)" stroke-width="1.5"></path><path d="M1090.23 510.21L973.53 527.14" stroke="hsl(229.10000000000002, 10%, 56.1%)" stroke-width="1.5"></path><path d="M1090.23 510.21L1090.27 641.33" stroke="hsl(229.10000000000002, 10%, 56.1%)" stroke-width="1.5"></path><path d="M1459.63 412.11L1459.63 412.11" stroke="hsl(229.10000000000002, 10%, 56.1%)" stroke-width="1.5"></path><path d="M1459.63 412.11L1421.23 510.56" stroke="hsl(229.10000000000002, 10%, 56.1%)" stroke-width="1.5"></path><path d="M1459.63 412.11L1599.28 388.31" stroke="hsl(229.10000000000002, 10%, 56.1%)" stroke-width="1.5"></path><path d="M1421.23 510.56L1421.23 510.56" stroke="hsl(229.10000000000002, 10%, 56.1%)" stroke-width="1.5"></path><path d="M1421.23 510.56L1589.08 512.97" stroke="hsl(229.10000000000002, 10%, 56.1%)" stroke-width="1.5"></path><path d="M1421.23 510.56L1238.21 507.7" stroke="hsl(229.10000000000002, 10%, 56.1%)" stroke-width="1.5"></path><path d="M1421.23 510.56L1420.54 710.33" stroke="hsl(229.10000000000002, 10%, 56.1%)" stroke-width="1.5"></path><path d="M1421.23 510.56L1599.28 388.31" stroke="hsl(229.10000000000002, 10%, 56.1%)" stroke-width="1.5"></path><path d="M-73 515.43L-73 515.43" stroke="hsl(229.10000000000002, 10%, 56.1%)" stroke-width="1.5"></path><path d="M-73 515.43L65.55 492.62" stroke="hsl(229.10000000000002, 10%, 56.1%)" stroke-width="1.5"></path><path d="M-73 515.43L-48.74 681.65" stroke="hsl(229.10000000000002, 10%, 56.1%)" stroke-width="1.5"></path><path d="M-73 515.43L86.95 706.65" stroke="hsl(229.10000000000002, 10%, 56.1%)" stroke-width="1.5"></path><path d="M-73 515.43L260.29 492.45" stroke="hsl(229.10000000000002, 10%, 56.1%)" stroke-width="1.5"></path><path d="M-73 515.43L247.45 703.56" stroke="hsl(229.10000000000002, 10%, 56.1%)" stroke-width="1.5"></path><path d="M-48.74 681.65L-48.74 681.65" stroke="hsl(229.10000000000002, 10%, 56.1%)" stroke-width="1.5"></path><path d="M-48.74 681.65L86.95 706.65" stroke="hsl(229.10000000000002, 10%, 56.1%)" stroke-width="1.5"></path><path d="M65.55 492.62L65.55 492.62" stroke="hsl(229.10000000000002, 10%, 56.1%)" stroke-width="1.5"></path><path d="M65.55 492.62L260.29 492.45" stroke="hsl(229.10000000000002, 10%, 56.1%)" stroke-width="1.5"></path><path d="M86.95 706.65L86.95 706.65" stroke="hsl(229.10000000000002, 10%, 56.1%)" stroke-width="1.5"></path><path d="M86.95 706.65L247.45 703.56" stroke="hsl(229.10000000000002, 10%, 56.1%)" stroke-width="1.5"></path><path d="M86.95 706.65L65.55 492.62" stroke="hsl(229.10000000000002, 10%, 56.1%)" stroke-width="1.5"></path><path d="M260.29 492.45L260.29 492.45" stroke="hsl(229.10000000000002, 10%, 56.1%)" stroke-width="1.5"></path><path d="M260.29 492.45L404.7 499.52" stroke="hsl(229.10000000000002, 10%, 56.1%)" stroke-width="1.5"></path><path d="M260.29 492.45L337.81 661.63" stroke="hsl(229.10000000000002, 10%, 56.1%)" stroke-width="1.5"></path><path d="M247.45 703.56L247.45 703.56" stroke="hsl(229.10000000000002, 10%, 56.1%)" stroke-width="1.5"></path><path d="M247.45 703.56L337.81 661.63" stroke="hsl(229.10000000000002, 10%, 56.1%)" stroke-width="1.5"></path><path d="M247.45 703.56L260.29 492.45" stroke="hsl(229.10000000000002, 10%, 56.1%)" stroke-width="1.5"></path><path d="M247.45 703.56L404.7 499.52" stroke="hsl(229.10000000000002, 10%, 56.1%)" stroke-width="1.5"></path><path d="M247.45 703.56L505.33 650.25" stroke="hsl(229.10000000000002, 10%, 56.1%)" stroke-width="1.5"></path><path d="M404.7 499.52L404.7 499.52" stroke="hsl(229.10000000000002, 10%, 56.1%)" stroke-width="1.5"></path><path d="M404.7 499.52L545.71 487.72" stroke="hsl(229.10000000000002, 10%, 56.1%)" stroke-width="1.5"></path><path d="M404.7 499.52L337.81 661.63" stroke="hsl(229.10000000000002, 10%, 56.1%)" stroke-width="1.5"></path><path d="M404.7 499.52L505.33 650.25" stroke="hsl(229.10000000000002, 10%, 56.1%)" stroke-width="1.5"></path><path d="M404.7 499.52L685.82 518.79" stroke="hsl(229.10000000000002, 10%, 56.1%)" stroke-width="1.5"></path><path d="M337.81 661.63L337.81 661.63" stroke="hsl(229.10000000000002, 10%, 56.1%)" stroke-width="1.5"></path><path d="M545.71 487.72L545.71 487.72" stroke="hsl(229.10000000000002, 10%, 56.1%)" stroke-width="1.5"></path><path d="M545.71 487.72L685.82 518.79" stroke="hsl(229.10000000000002, 10%, 56.1%)" stroke-width="1.5"></path><path d="M545.71 487.72L505.33 650.25" stroke="hsl(229.10000000000002, 10%, 56.1%)" stroke-width="1.5"></path><path d="M545.71 487.72L706.87 402.54" stroke="hsl(229.10000000000002, 10%, 56.1%)" stroke-width="1.5"></path><path d="M545.71 487.72L680.7 699.53" stroke="hsl(229.10000000000002, 10%, 56.1%)" stroke-width="1.5"></path><path d="M545.71 487.72L337.81 661.63" stroke="hsl(229.10000000000002, 10%, 56.1%)" stroke-width="1.5"></path><path d="M505.33 650.25L505.33 650.25" stroke="hsl(229.10000000000002, 10%, 56.1%)" stroke-width="1.5"></path><path d="M505.33 650.25L337.81 661.63" stroke="hsl(229.10000000000002, 10%, 56.1%)" stroke-width="1.5"></path><path d="M706.87 402.54L706.87 402.54" stroke="hsl(229.10000000000002, 10%, 56.1%)" stroke-width="1.5"></path><path d="M706.87 402.54L685.82 518.79" stroke="hsl(229.10000000000002, 10%, 56.1%)" stroke-width="1.5"></path><path d="M706.87 402.54L839.12 382.53" stroke="hsl(229.10000000000002, 10%, 56.1%)" stroke-width="1.5"></path><path d="M706.87 402.54L938.44 400.3" stroke="hsl(229.10000000000002, 10%, 56.1%)" stroke-width="1.5"></path><path d="M706.87 402.54L848.64 655.05" stroke="hsl(229.10000000000002, 10%, 56.1%)" stroke-width="1.5"></path><path d="M685.82 518.79L685.82 518.79" stroke="hsl(229.10000000000002, 10%, 56.1%)" stroke-width="1.5"></path><path d="M685.82 518.79L680.7 699.53" stroke="hsl(229.10000000000002, 10%, 56.1%)" stroke-width="1.5"></path><path d="M685.82 518.79L839.12 382.53" stroke="hsl(229.10000000000002, 10%, 56.1%)" stroke-width="1.5"></path><path d="M685.82 518.79L848.64 655.05" stroke="hsl(229.10000000000002, 10%, 56.1%)" stroke-width="1.5"></path><path d="M685.82 518.79L505.33 650.25" stroke="hsl(229.10000000000002, 10%, 56.1%)" stroke-width="1.5"></path><path d="M680.7 699.53L680.7 699.53" stroke="hsl(229.10000000000002, 10%, 56.1%)" stroke-width="1.5"></path><path d="M680.7 699.53L848.64 655.05" stroke="hsl(229.10000000000002, 10%, 56.1%)" stroke-width="1.5"></path><path d="M680.7 699.53L505.33 650.25" stroke="hsl(229.10000000000002, 10%, 56.1%)" stroke-width="1.5"></path><path d="M680.7 699.53L954.38 662.78" stroke="hsl(229.10000000000002, 10%, 56.1%)" stroke-width="1.5"></path><path d="M839.12 382.53L839.12 382.53" stroke="hsl(229.10000000000002, 10%, 56.1%)" stroke-width="1.5"></path><path d="M848.64 655.05L848.64 655.05" stroke="hsl(229.10000000000002, 10%, 56.1%)" stroke-width="1.5"></path><path d="M848.64 655.05L954.38 662.78" stroke="hsl(229.10000000000002, 10%, 56.1%)" stroke-width="1.5"></path><path d="M848.64 655.05L973.53 527.14" stroke="hsl(229.10000000000002, 10%, 56.1%)" stroke-width="1.5"></path><path d="M973.53 527.14L973.53 527.14" stroke="hsl(229.10000000000002, 10%, 56.1%)" stroke-width="1.5"></path><path d="M973.53 527.14L954.38 662.78" stroke="hsl(229.10000000000002, 10%, 56.1%)" stroke-width="1.5"></path><path d="M973.53 527.14L1090.27 641.33" stroke="hsl(229.10000000000002, 10%, 56.1%)" stroke-width="1.5"></path><path d="M954.38 662.78L954.38 662.78" stroke="hsl(229.10000000000002, 10%, 56.1%)" stroke-width="1.5"></path><path d="M954.38 662.78L1090.27 641.33" stroke="hsl(229.10000000000002, 10%, 56.1%)" stroke-width="1.5"></path><path d="M1138.11 80.85L1138.11 80.85" stroke="hsl(229.10000000000002, 10%, 56.1%)" stroke-width="1.5"></path><path d="M1138.11 80.85L1147.64 199.08" stroke="hsl(229.10000000000002, 10%, 56.1%)" stroke-width="1.5"></path><path d="M1138.11 80.85L1248.73 199.23" stroke="hsl(229.10000000000002, 10%, 56.1%)" stroke-width="1.5"></path><path d="M1138.11 80.85L1158.36 -82.56" stroke="hsl(229.10000000000002, 10%, 56.1%)" stroke-width="1.5"></path><path d="M1138.11 80.85L1312.26 59.55" stroke="hsl(229.10000000000002, 10%, 56.1%)" stroke-width="1.5"></path><path d="M1138.11 80.85L1255.22 -63.93" stroke="hsl(229.10000000000002, 10%, 56.1%)" stroke-width="1.5"></path><path d="M1123.18 366.08L1123.18 366.08" stroke="hsl(229.10000000000002, 10%, 56.1%)" stroke-width="1.5"></path><path d="M1123.18 366.08L1240.05 383.77" stroke="hsl(229.10000000000002, 10%, 56.1%)" stroke-width="1.5"></path><path d="M1123.18 366.08L1090.23 510.21" stroke="hsl(229.10000000000002, 10%, 56.1%)" stroke-width="1.5"></path><path d="M1090.27 641.33L1090.27 641.33" stroke="hsl(229.10000000000002, 10%, 56.1%)" stroke-width="1.5"></path><path d="M1090.27 641.33L1245.74 669.09" stroke="hsl(229.10000000000002, 10%, 56.1%)" stroke-width="1.5"></path><path d="M1255.22 -63.93L1255.22 -63.93" stroke="hsl(229.10000000000002, 10%, 56.1%)" stroke-width="1.5"></path><path d="M1255.22 -63.93L1312.26 59.55" stroke="hsl(229.10000000000002, 10%, 56.1%)" stroke-width="1.5"></path><path d="M1312.26 59.55L1312.26 59.55" stroke="hsl(229.10000000000002, 10%, 56.1%)" stroke-width="1.5"></path><path d="M1312.26 59.55L1461.28 44.45" stroke="hsl(229.10000000000002, 10%, 56.1%)" stroke-width="1.5"></path><path d="M1312.26 59.55L1248.73 199.23" stroke="hsl(229.10000000000002, 10%, 56.1%)" stroke-width="1.5"></path><path d="M1248.73 199.23L1248.73 199.23" stroke="hsl(229.10000000000002, 10%, 56.1%)" stroke-width="1.5"></path><path d="M1248.73 199.23L1425.33 247.24" stroke="hsl(229.10000000000002, 10%, 56.1%)" stroke-width="1.5"></path><path d="M1248.73 199.23L1240.05 383.77" stroke="hsl(229.10000000000002, 10%, 56.1%)" stroke-width="1.5"></path><path d="M1248.73 199.23L1123.18 366.08" stroke="hsl(229.10000000000002, 10%, 56.1%)" stroke-width="1.5"></path><path d="M1240.05 383.77L1240.05 383.77" stroke="hsl(229.10000000000002, 10%, 56.1%)" stroke-width="1.5"></path><path d="M1240.05 383.77L1238.21 507.7" stroke="hsl(229.10000000000002, 10%, 56.1%)" stroke-width="1.5"></path><path d="M1238.21 507.7L1238.21 507.7" stroke="hsl(229.10000000000002, 10%, 56.1%)" stroke-width="1.5"></path><path d="M1238.21 507.7L1090.23 510.21" stroke="hsl(229.10000000000002, 10%, 56.1%)" stroke-width="1.5"></path><path d="M1238.21 507.7L1245.74 669.09" stroke="hsl(229.10000000000002, 10%, 56.1%)" stroke-width="1.5"></path><path d="M1238.21 507.7L1123.18 366.08" stroke="hsl(229.10000000000002, 10%, 56.1%)" stroke-width="1.5"></path><path d="M1245.74 669.09L1245.74 669.09" stroke="hsl(229.10000000000002, 10%, 56.1%)" stroke-width="1.5"></path><path d="M1245.74 669.09L1420.54 710.33" stroke="hsl(229.10000000000002, 10%, 56.1%)" stroke-width="1.5"></path><path d="M1245.74 669.09L1090.23 510.21" stroke="hsl(229.10000000000002, 10%, 56.1%)" stroke-width="1.5"></path><path d="M1245.74 669.09L1421.23 510.56" stroke="hsl(229.10000000000002, 10%, 56.1%)" stroke-width="1.5"></path><path d="M1245.74 669.09L1240.05 383.77" stroke="hsl(229.10000000000002, 10%, 56.1%)" stroke-width="1.5"></path><path d="M1456.55 -79.05L1456.55 -79.05" stroke="hsl(229.10000000000002, 10%, 56.1%)" stroke-width="1.5"></path><path d="M1456.55 -79.05L1461.28 44.45" stroke="hsl(229.10000000000002, 10%, 56.1%)" stroke-width="1.5"></path><path d="M1456.55 -79.05L1312.26 59.55" stroke="hsl(229.10000000000002, 10%, 56.1%)" stroke-width="1.5"></path><path d="M1456.55 -79.05L1255.22 -63.93" stroke="hsl(229.10000000000002, 10%, 56.1%)" stroke-width="1.5"></path><path d="M1461.28 44.45L1461.28 44.45" stroke="hsl(229.10000000000002, 10%, 56.1%)" stroke-width="1.5"></path><path d="M1461.28 44.45L1605.73 78.76" stroke="hsl(229.10000000000002, 10%, 56.1%)" stroke-width="1.5"></path><path d="M1425.33 247.24L1425.33 247.24" stroke="hsl(229.10000000000002, 10%, 56.1%)" stroke-width="1.5"></path><path d="M1425.33 247.24L1570.32 214.39" stroke="hsl(229.10000000000002, 10%, 56.1%)" stroke-width="1.5"></path><path d="M1425.33 247.24L1459.63 412.11" stroke="hsl(229.10000000000002, 10%, 56.1%)" stroke-width="1.5"></path><path d="M1425.33 247.24L1461.28 44.45" stroke="hsl(229.10000000000002, 10%, 56.1%)" stroke-width="1.5"></path><path d="M1425.33 247.24L1312.26 59.55" stroke="hsl(229.10000000000002, 10%, 56.1%)" stroke-width="1.5"></path><path d="M1425.33 247.24L1599.28 388.31" stroke="hsl(229.10000000000002, 10%, 56.1%)" stroke-width="1.5"></path><path d="M1420.54 710.33L1420.54 710.33" stroke="hsl(229.10000000000002, 10%, 56.1%)" stroke-width="1.5"></path><path d="M1420.54 710.33L1584.43 679.42" stroke="hsl(229.10000000000002, 10%, 56.1%)" stroke-width="1.5"></path><path d="M1420.54 710.33L1589.08 512.97" stroke="hsl(229.10000000000002, 10%, 56.1%)" stroke-width="1.5"></path><path d="M1420.54 710.33L1238.21 507.7" stroke="hsl(229.10000000000002, 10%, 56.1%)" stroke-width="1.5"></path><path d="M1420.54 710.33L1459.63 412.11" stroke="hsl(229.10000000000002, 10%, 56.1%)" stroke-width="1.5"></path><path d="M1605.73 78.76L1605.73 78.76" stroke="hsl(229.10000000000002, 10%, 56.1%)" stroke-width="1.5"></path><path d="M1605.73 78.76L1570.32 214.39" stroke="hsl(229.10000000000002, 10%, 56.1%)" stroke-width="1.5"></path><path d="M1605.73 78.76L1456.55 -79.05" stroke="hsl(229.10000000000002, 10%, 56.1%)" stroke-width="1.5"></path><path d="M1605.73 78.76L1425.33 247.24" stroke="hsl(229.10000000000002, 10%, 56.1%)" stroke-width="1.5"></path><path d="M1605.73 78.76L1312.26 59.55" stroke="hsl(229.10000000000002, 10%, 56.1%)" stroke-width="1.5"></path><path d="M1605.73 78.76L1599.28 388.31" stroke="hsl(229.10000000000002, 10%, 56.1%)" stroke-width="1.5"></path><path d="M1570.32 214.39L1570.32 214.39" stroke="hsl(229.10000000000002, 10%, 56.1%)" stroke-width="1.5"></path><path d="M1570.32 214.39L1599.28 388.31" stroke="hsl(229.10000000000002, 10%, 56.1%)" stroke-width="1.5"></path><path d="M1570.32 214.39L1461.28 44.45" stroke="hsl(229.10000000000002, 10%, 56.1%)" stroke-width="1.5"></path><path d="M1570.32 214.39L1459.63 412.11" stroke="hsl(229.10000000000002, 10%, 56.1%)" stroke-width="1.5"></path><path d="M1570.32 214.39L1589.08 512.97" stroke="hsl(229.10000000000002, 10%, 56.1%)" stroke-width="1.5"></path><path d="M1599.28 388.31L1599.28 388.31" stroke="hsl(229.10000000000002, 10%, 56.1%)" stroke-width="1.5"></path><path d="M1599.28 388.31L1589.08 512.97" stroke="hsl(229.10000000000002, 10%, 56.1%)" stroke-width="1.5"></path><path d="M1599.28 388.31L1584.43 679.42" stroke="hsl(229.10000000000002, 10%, 56.1%)" stroke-width="1.5"></path><path d="M1589.08 512.97L1589.08 512.97" stroke="hsl(229.10000000000002, 10%, 56.1%)" stroke-width="1.5"></path><path d="M1584.43 679.42L1584.43 679.42" stroke="hsl(229.10000000000002, 10%, 56.1%)" stroke-width="1.5"></path><path d="M1584.43 679.42L1589.08 512.97" stroke="hsl(229.10000000000002, 10%, 56.1%)" stroke-width="1.5"></path><path d="M1584.43 679.42L1421.23 510.56" stroke="hsl(229.10000000000002, 10%, 56.1%)" stroke-width="1.5"></path><circle r="25" cx="938.44" cy="400.3" fill="url(#SvgjsRadialGradient1007)"></circle><circle r="25" cx="1158.36" cy="-82.56" fill="url(#SvgjsRadialGradient1007)"></circle><circle r="25" cx="1147.64" cy="199.08" fill="url(#SvgjsRadialGradient1007)"></circle><circle r="25" cx="1090.23" cy="510.21" fill="url(#SvgjsRadialGradient1007)"></circle><circle r="25" cx="1459.63" cy="412.11" fill="url(#SvgjsRadialGradient1007)"></circle><circle r="25" cx="1421.23" cy="510.56" fill="url(#SvgjsRadialGradient1007)"></circle><circle r="5" cx="-73" cy="515.43" fill="#b1b3bc"></circle><circle r="5" cx="-48.74" cy="681.65" fill="#b1b3bc"></circle><circle r="5" cx="65.55" cy="492.62" fill="#b1b3bc"></circle><circle r="5" cx="86.95" cy="706.65" fill="#b1b3bc"></circle><circle r="5" cx="260.29" cy="492.45" fill="#b1b3bc"></circle><circle r="5" cx="247.45" cy="703.56" fill="#b1b3bc"></circle><circle r="5" cx="404.7" cy="499.52" fill="#b1b3bc"></circle><circle r="5" cx="337.81" cy="661.63" fill="#b1b3bc"></circle><circle r="5" cx="545.71" cy="487.72" fill="#b1b3bc"></circle><circle r="5" cx="505.33" cy="650.25" fill="#b1b3bc"></circle><circle r="5" cx="706.87" cy="402.54" fill="#b1b3bc"></circle><circle r="5" cx="685.82" cy="518.79" fill="#b1b3bc"></circle><circle r="5" cx="680.7" cy="699.53" fill="#b1b3bc"></circle><circle r="5" cx="839.12" cy="382.53" fill="#b1b3bc"></circle><circle r="5" cx="848.64" cy="655.05" fill="#b1b3bc"></circle><circle r="5" cx="973.53" cy="527.14" fill="#b1b3bc"></circle><circle r="5" cx="954.38" cy="662.78" fill="#b1b3bc"></circle><circle r="5" cx="1138.11" cy="80.85" fill="#b1b3bc"></circle><circle r="5" cx="1123.18" cy="366.08" fill="#b1b3bc"></circle><circle r="5" cx="1090.27" cy="641.33" fill="#b1b3bc"></circle><circle r="5" cx="1255.22" cy="-63.93" fill="#b1b3bc"></circle><circle r="5" cx="1312.26" cy="59.55" fill="#b1b3bc"></circle><circle r="5" cx="1248.73" cy="199.23" fill="#b1b3bc"></circle><circle r="5" cx="1240.05" cy="383.77" fill="#b1b3bc"></circle><circle r="5" cx="1238.21" cy="507.7" fill="#b1b3bc"></circle><circle r="5" cx="1245.74" cy="669.09" fill="#b1b3bc"></circle><circle r="5" cx="1456.55" cy="-79.05" fill="#b1b3bc"></circle><circle r="5" cx="1461.28" cy="44.45" fill="#b1b3bc"></circle><circle r="5" cx="1425.33" cy="247.24" fill="#b1b3bc"></circle><circle r="5" cx="1420.54" cy="710.33" fill="#b1b3bc"></circle><circle r="5" cx="1605.73" cy="78.76" fill="#b1b3bc"></circle><circle r="5" cx="1570.32" cy="214.39" fill="#b1b3bc"></circle><circle r="5" cx="1599.28" cy="388.31" fill="#b1b3bc"></circle><circle r="5" cx="1589.08" cy="512.97" fill="#b1b3bc"></circle><circle r="5" cx="1584.43" cy="679.42" fill="#b1b3bc"></circle></g><defs><mask id="SvgjsMask1006"><rect width="1440" height="560" fill="#ffffff"></rect></mask><radialGradient id="SvgjsRadialGradient1007"><stop stop-color="#ffffff" offset="0.1"></stop><stop stop-color="rgba(99, 103, 121, 1)" offset="0.2"></stop><stop stop-color="rgba(99, 103, 121, 0)" offset="1"></stop></radialGradient></defs></svg>