<svg xmlns="http://www.w3.org/2000/svg" version="1.1" xmlns:xlink="http://www.w3.org/1999/xlink" xmlns:svgjs="http://svgjs.com/svgjs" width="1440" height="250" preserveAspectRatio="none" viewBox="0 0 1440 250"><g mask="url(&quot;#SvgjsMask1006&quot;)" fill="none"><rect width="1440" height="250" x="0" y="0" fill="rgba(209, 211, 213, 1)"></rect><path d="M23 250L273 0L402 0L152 250z" fill="url(#SvgjsLinearGradient1007)"></path><path d="M253.60000000000002 250L503.6 0L710.6 0L460.6 250z" fill="url(#SvgjsLinearGradient1007)"></path><path d="M504.20000000000005 250L754.2 0L952.2 0L702.2 250z" fill="url(#SvgjsLinearGradient1007)"></path><path d="M747.8000000000001 250L997.8000000000001 0L1105.8000000000002 0L855.8000000000001 250z" fill="url(#SvgjsLinearGradient1007)"></path><path d="M1432 250L1182 0L1021.5 0L1271.5 250z" fill="url(#SvgjsLinearGradient1008)"></path><path d="M1164.4 250L914.4000000000001 0L789.9000000000001 0L1039.9 250z" fill="url(#SvgjsLinearGradient1008)"></path><path d="M932.8 250L682.8 0L351.29999999999995 0L601.3 250z" fill="url(#SvgjsLinearGradient1008)"></path><path d="M705.1999999999999 250L455.19999999999993 0L338.19999999999993 0L588.1999999999999 250z" fill="url(#SvgjsLinearGradient1008)"></path><path d="M1246.0174769556322 250L1440 56.017476955632134L1440 250z" fill="url(#SvgjsLinearGradient1007)"></path><path d="M0 250L193.98252304436787 250L 0 56.017476955632134z" fill="url(#SvgjsLinearGradient1008)"></path></g><defs><mask id="SvgjsMask1006"><rect width="1440" height="250" fill="#ffffff"></rect></mask><linearGradient x1="0%" y1="100%" x2="100%" y2="0%" id="SvgjsLinearGradient1007"><stop stop-color="rgba(14, 30, 61, 0.2)" offset="0"></stop><stop stop-opacity="0" stop-color="rgba(14, 30, 61, 0.2)" offset="0.66"></stop></linearGradient><linearGradient x1="100%" y1="100%" x2="0%" y2="0%" id="SvgjsLinearGradient1008"><stop stop-color="rgba(14, 30, 61, 0.2)" offset="0"></stop><stop stop-opacity="0" stop-color="rgba(14, 30, 61, 0.2)" offset="0.66"></stop></linearGradient></defs></svg>